<?xml version="1.0" standalone="no"?>
<!DOCTYPE svg PUBLIC "-//W3C//DTD SVG 20010904//EN"
 "http://www.w3.org/TR/2001/REC-SVG-20010904/DTD/svg10.dtd">
<svg version="1.0" xmlns="http://www.w3.org/2000/svg"
 width="1362.000000pt" height="1362.000000pt" viewBox="0 0 1362.000000 1362.000000"
 preserveAspectRatio="xMidYMid meet">
<metadata>
Created by potrace 1.14, written by Peter Selinger 2001-2017
</metadata>
<g transform="translate(0.000000,1362.000000) scale(0.100000,-0.100000)"
fill="#000000" stroke="none">
<path d="M2326 11942 c-8 -13 -9 -9679 -1 -9691 4 -8 1313 -11 4555 -11 4515
0 4549 0 4560 20 7 12 10 118 10 290 -1 313 8 290 -112 290 l-73 0 -763 763
-762 762 0 93 c0 50 -3 92 -7 92 -5 0 -1150 0 -2546 0 -2518 0 -2537 0 -2557
20 -20 20 -20 35 -20 669 0 582 2 649 16 655 9 3 1154 6 2544 6 1972 0 2530 3
2536 12 12 18 5 1991 -6 2002 -6 6 -949 9 -2525 7 -2302 -3 -2518 -1 -2540 13
l-25 17 2 947 3 947 2495 5 c1372 3 2496 6 2498 8 1 1 2 53 2 115 0 130 2 136
115 263 33 37 71 82 85 99 14 18 54 66 88 106 85 99 141 164 188 220 97 114
123 145 141 164 10 11 29 34 41 50 13 17 38 46 56 65 17 19 54 62 80 95 27 33
70 85 96 115 26 30 75 87 109 127 l61 72 78 3 77 3 0 295 0 295 -4247 3
c-2336 1 -4249 -2 -4252 -6z m7532 -588 c12 -4 22 -9 22 -13 0 -3 -21 -28 -46
-55 -25 -27 -69 -78 -98 -115 -30 -36 -69 -82 -87 -101 -19 -20 -50 -56 -69
-80 -19 -25 -50 -62 -69 -83 -19 -21 -42 -47 -50 -59 -9 -11 -36 -43 -61 -72
-25 -28 -71 -82 -102 -121 -31 -38 -83 -99 -116 -135 l-60 -65 -2549 0 -2548
-1 -3 -1567 -2 -1567 2540 0 c1398 1 2545 -2 2550 -5 6 -4 10 -161 10 -399 0
-333 -2 -395 -15 -406 -11 -9 -564 -11 -2512 -10 -1374 1 -2515 2 -2535 1
l-38 -1 0 -1270 0 -1270 2638 0 2637 0 555 -555 c440 -440 552 -557 540 -565
-23 -14 -7449 -13 -7467 1 -19 16 -20 8505 0 8512 17 8 6907 8 6935 1z"/>
</g>
</svg>
